<svg width="131" height="96" viewBox="0 0 131 96" fill="none" xmlns="http://www.w3.org/2000/svg">
<g clip-path="url(#clip0_30_8348)">
<g clip-path="url(#clip1_30_8348)">
<path fill-rule="evenodd" clip-rule="evenodd" d="M113.796 52.8544C111.496 54.8144 108.556 55.8844 105.536 55.8544C99.2556 55.8544 95.1855 51.4044 95.1855 44.5144C95.1855 40.5744 96.0056 37.9644 97.9256 35.8244C99.6456 33.8444 102.186 32.7544 104.806 32.8744C107.136 32.8044 109.406 33.6544 111.126 35.2244C113.126 37.2744 114.036 40.2244 114.036 44.8044V46.1344H101.396V46.3044C101.396 49.6844 103.056 51.6144 106.016 51.6144C108.066 51.5744 110.046 50.8044 111.576 49.4344L113.796 52.8544ZM108.126 41.9444V41.7044C108.246 40.5644 108.006 39.4144 107.446 38.4144C106.906 37.5544 105.936 37.0644 104.926 37.1344C102.746 37.1344 101.506 38.8444 101.506 41.8844V41.9644L108.126 41.9444Z" fill="#02033B"/>
<path fill-rule="evenodd" clip-rule="evenodd" d="M128.544 37.3244H124.864V48.3244C124.864 51.1044 125.374 51.8344 127.344 51.8344C128.044 51.7944 128.734 51.6444 129.394 51.4144L130.124 54.8344C128.654 55.4844 127.064 55.8244 125.454 55.8344C122.554 55.8344 120.234 54.5544 119.554 52.6344C119.194 51.5444 119.064 50.3844 119.174 49.2444V37.3144H116.994V33.3844H119.174C119.134 31.6544 119.204 29.9244 119.384 28.2044L125.204 26.7544C124.984 28.9544 124.864 31.1744 124.864 33.3844H130.004L128.544 37.3244Z" fill="#02033B"/>
<path fill-rule="evenodd" clip-rule="evenodd" d="M86.495 25.5543L86.625 37.7043C86.625 39.7043 86.875 43.5643 87.095 45.8843C86.235 42.9943 85.145 40.1643 83.845 37.4443L78.125 25.5443H71.515V39.0543L56.435 6.70435L0.125 32.9643L26.375 89.2743L82.685 63.0143L77.235 51.3343L77.125 42.5843C77.125 40.1043 77.035 36.5843 76.825 34.1543C77.385 35.9943 79.185 40.1543 80.825 43.9143L85.925 55.2943H92.165V25.5543H86.495ZM54.205 54.9843H49.405V48.5843H52.745C57.255 48.5843 61.105 46.1143 61.105 40.4543C61.105 35.2543 57.675 32.3243 52.825 32.3243H48.595V46.8343L43.125 54.9843H11.725L27.125 32.3343H13.045L17.325 25.9343H40.555L25.255 48.5843H41.045V25.9343H54.205C62.225 25.6443 68.965 31.9043 69.255 39.9243C69.545 47.9443 63.285 54.6843 55.265 54.9743C55.125 54.9743 54.975 54.9743 54.835 54.9743H54.205" fill="#02033B"/>
</g>
</g>
<defs>
<clipPath id="clip0_30_8348">
<rect width="130" height="95" fill="white" transform="translate(0.125 0.484375)"/>
</clipPath>
<clipPath id="clip1_30_8348">
<rect width="130" height="82.56" fill="white" transform="translate(0.125 6.70435)"/>
</clipPath>
</defs>
</svg>
