<svg width="131" height="96" viewBox="0 0 131 96" fill="none" xmlns="http://www.w3.org/2000/svg">
<g clip-path="url(#clip0_30_8298)">
<g clip-path="url(#clip1_30_8298)">
<path fill-rule="evenodd" clip-rule="evenodd" d="M23.0796 80.8691C22.5918 78.5493 20.7001 77.932 18.5795 77.7329C11.7198 77.0957 10.5052 82.243 10.5052 84.4034C10.5052 88.117 11.5805 91.1835 18.3207 91.1835C19.5552 91.1835 22.99 89.9091 22.99 87.8283H32.6672C32.2789 94.001 21.9148 95.4844 17.4047 95.4844C8.04608 95.4844 0.0315115 93.7322 0.419795 84.5329C0.698562 77.932 6.92105 73.3025 19.3362 73.5813C26.2357 73.7406 32.8564 75.901 32.8863 80.8989L23.0796 80.8691Z" fill="#02033B"/>
<path fill-rule="evenodd" clip-rule="evenodd" d="M120.072 80.8691C119.594 78.5493 117.702 77.932 115.581 77.7329C108.722 77.0957 107.507 82.243 107.507 84.4034C107.507 88.117 108.582 91.1835 115.323 91.1835C116.557 91.1835 119.982 89.9091 119.982 87.8283H129.679C129.281 94.001 118.927 95.4844 114.407 95.4844C105.048 95.4844 97.0335 93.7322 97.4217 84.5329C97.7005 77.932 103.923 73.3025 116.338 73.5813C123.238 73.7406 129.858 75.901 129.888 80.8989L120.072 80.8691Z" fill="#02033B"/>
<path fill-rule="evenodd" clip-rule="evenodd" d="M34.5586 73.9993H47.133L57.8656 89.0925H57.9452V73.9993H66.0095V94.9068H53.9628L42.7125 79.8534H42.6229V94.9268H34.5586V73.9993Z" fill="#02033B"/>
<path fill-rule="evenodd" clip-rule="evenodd" d="M68.498 73.9993H83.7606C91.1081 73.9993 95.419 76.0502 95.419 79.1565C95.419 80.9884 93.617 83.2583 89.5848 83.9254V83.9851C94.4334 84.2639 96.2255 87.3403 96.2255 89.1821C96.2255 92.8758 92.0141 94.9268 83.8103 94.9268H68.498V73.9993ZM77.329 82.1234H79.8678C83.7705 82.1234 85.8414 81.8147 85.8414 80.1919C85.8414 78.5691 84.119 77.8722 80.6145 77.8722H77.339V82.1234H77.329ZM77.329 90.5362H79.8678C84.567 90.5362 86.2894 90.0384 86.2894 88.4155C86.2894 86.7927 84.119 86.1057 80.6045 86.1057H77.339V90.5362H77.329Z" fill="#02033B"/>
<path fill-rule="evenodd" clip-rule="evenodd" d="M108.571 41.9113L72.5801 65.9848L84.7065 37.1623L90.4511 23.7515C92.7011 19.4506 97.1116 16.7027 101.96 16.5733C106.52 16.5434 110.771 18.8731 113.191 22.736C115.839 26.7184 115.988 33.1699 113.34 37.1722C112.095 39.0638 110.473 40.6767 108.581 41.9212" fill="#02033B"/>
<path fill-rule="evenodd" clip-rule="evenodd" d="M90.6506 19.1817L72.8493 61.2656L72.0927 56.6759L66.7065 22.1784C66.4476 20.1872 67.3536 18.2259 69.0362 17.1208L71.5849 15.5975C71.7343 15.0699 70.9876 14.8906 70.6391 14.7214L65.6611 14.6716C65.014 7.51327 70.2907 1.19122 77.449 0.53412C79.5497 0.344957 81.6703 0.663548 83.6118 1.47994C88.4404 3.61052 91.5965 8.33961 91.7159 13.6163C91.7159 15.5179 91.3575 17.4095 90.6506 19.1717" fill="#02033B"/>
<path fill-rule="evenodd" clip-rule="evenodd" d="M56.4622 61.4151L38.9396 19.2316C37.038 14.4925 37.8544 9.09636 41.0702 5.13388C44.3358 1.30082 49.5129 -0.312046 54.3814 0.972276C58.9014 2.30638 62.4059 5.89053 63.6305 10.4404C64.0387 12.1927 64.1482 13.9947 63.9491 15.7868L56.4622 61.4151Z" fill="#02033B"/>
<path fill-rule="evenodd" clip-rule="evenodd" d="M19.007 40.388C15.4826 37.4211 13.7204 32.8513 14.3476 28.2914C15.0346 23.2139 18.4893 18.9328 23.308 17.1806C27.9674 15.6673 33.0848 16.9118 36.5295 20.3963C37.8537 21.7305 38.8991 23.3234 39.6059 25.0657L56.5311 66.0545L19.007 40.388Z" fill="#02033B"/>
<path fill-rule="evenodd" clip-rule="evenodd" d="M15.1555 70.3355C10.6156 69.8975 6.63317 67.1098 4.66189 62.988C2.46161 58.3186 2.97933 52.8229 6.0159 48.6414C9.28146 44.7287 13.9807 42.7574 18.7695 43.7331C20.5915 44.0716 22.3338 44.7984 23.867 45.8438L60.3059 70.3355H15.1555Z" fill="#02033B"/>
<path fill-rule="evenodd" clip-rule="evenodd" d="M114.088 70.3355C118.638 69.9074 122.63 67.1098 124.581 62.978C126.782 58.3087 126.264 52.813 123.237 48.6414C119.972 44.7287 115.273 42.7574 110.474 43.7331C108.652 44.0816 106.91 44.7984 105.376 45.8438L68.9375 70.3355H114.088Z" fill="#02033B"/>
</g>
</g>
<defs>
<clipPath id="clip0_30_8298">
<rect width="130" height="95" fill="white" transform="translate(0.125 0.484375)"/>
</clipPath>
<clipPath id="clip1_30_8298">
<rect width="129.428" height="95" fill="white" transform="translate(0.410156 0.484375)"/>
</clipPath>
</defs>
</svg>
