<svg width="131" height="96" viewBox="0 0 131 96" fill="none" xmlns="http://www.w3.org/2000/svg">
<g clip-path="url(#clip0_30_8355)">
<g clip-path="url(#clip1_30_8355)">
<path d="M45.8146 41.9294V38.9294H33.2246V41.9294H37.6046V53.9294H33.2246V56.9294H45.8146V53.9294H41.0246V41.9294H45.8146Z" fill="#02033B"/>
<path d="M66.7148 42.0495H61.7148V46.9895C61.7148 46.9895 64.4248 46.9095 66.6548 46.9095C68.8848 46.9095 69.4448 46.4295 69.4448 44.1995C69.4448 41.6495 66.7348 42.0395 66.7348 42.0395" fill="#02033B"/>
<path d="M52.2246 61.2495H78.2246V34.7195H52.2246V61.2495ZM73.0146 52.5595V56.7195H69.4246V52.8195C69.4246 52.8195 69.4246 49.8195 67.3546 49.8195C65.2846 49.8195 61.6946 49.8995 61.6946 49.8995V56.8295H58.1946V38.9395H68.5546C70.8846 38.8095 72.8846 40.5895 73.0146 42.9295C73.0146 42.9295 73.0146 42.9295 73.0146 42.9395C73.0346 43.1495 73.0346 43.3595 73.0146 43.5695C73.0146 48.4295 70.3146 48.6695 70.3146 48.6695C70.3146 48.6695 73.0146 48.8295 73.0146 52.5695" fill="#02033B"/>
<path d="M83.0449 38.9395V41.9395H85.5149V53.9395H83.0449V56.8895H98.2649V51.0495H95.2649V53.9195H88.7849V49.0595H93.5649V46.1095H88.7849V41.8895H94.9949V44.7195H98.2649V38.9395H83.0449Z" fill="#02033B"/>
<path d="M118.975 41.9695H113.555V53.9695H119.215C121.925 53.9695 122.005 50.4595 122.005 50.4595V45.7895C122.005 41.7295 119.005 41.9695 119.005 41.9695" fill="#02033B"/>
<path d="M104.125 61.2495H130.125V34.7195H104.125V61.2495ZM119.425 57.0195C112.895 57.0195 109.945 57.0995 109.945 57.0995V39.0195H117.665C117.665 39.0195 125.665 38.1395 125.665 45.3095V50.3095C125.665 50.3095 125.985 56.9995 119.455 56.9995" fill="#02033B"/>
<path d="M0.125 61.2495H26.175V34.7195H0.125V61.2495ZM20.835 56.8595H16.375L13.505 43.8595L10.395 56.9395H6.015L2.355 39.0195H5.945L8.405 52.6395L11.595 39.0195L15.495 39.0995L18.685 52.8795L21.125 39.0195H24.545L20.835 56.8595Z" fill="#02033B"/>
</g>
</g>
<defs>
<clipPath id="clip0_30_8355">
<rect width="130" height="95" fill="white" transform="translate(0.125 0.484375)"/>
</clipPath>
<clipPath id="clip1_30_8355">
<rect width="130" height="26.53" fill="white" transform="translate(0.125 34.7195)"/>
</clipPath>
</defs>
</svg>
