<svg width="131" height="96" viewBox="0 0 131 96" fill="none" xmlns="http://www.w3.org/2000/svg">
<g clip-path="url(#clip0_30_8329)">
<g clip-path="url(#clip1_30_8329)">
<path fill-rule="evenodd" clip-rule="evenodd" d="M128.514 37.8545C128.594 35.3545 126.624 33.2545 124.124 33.1745H123.914C122.114 33.1745 120.224 34.1745 120.514 36.6745C120.694 38.2645 123.174 38.8345 124.514 39.2645C128.514 40.5145 130.094 42.0345 130.094 44.9945C130.094 47.9545 127.634 49.9945 123.244 49.9945C121.094 49.9945 118.704 49.5645 117.244 48.2445L116.734 43.9545H117.144C117.784 47.7745 119.434 49.2745 123.394 49.3745C125.924 49.4345 126.674 47.9945 126.664 46.2145C126.654 44.4345 124.734 43.6645 122.464 42.9145C119.214 41.9145 117.214 40.6345 117.214 37.5245C117.214 34.4145 119.964 32.4045 124.034 32.4045C125.714 32.4545 127.364 32.9145 128.834 33.7445V37.8145L128.514 37.8545Z" fill="#02033B"/>
<path fill-rule="evenodd" clip-rule="evenodd" d="M114.306 34.0645C115.016 33.5845 115.686 33.0545 116.306 32.4545C116.996 31.8745 117.436 31.0545 117.526 30.1545C117.526 29.9845 117.476 29.8045 117.376 29.6645C117.266 29.5345 117.096 29.4645 116.926 29.4745C116.716 29.5145 116.496 29.5345 116.286 29.5445C115.696 29.5645 115.116 29.3245 114.706 28.8945C114.296 28.4445 114.086 27.8445 114.126 27.2345C114.086 26.5645 114.326 25.9145 114.776 25.4245C115.256 24.9445 115.916 24.6845 116.596 24.7245C117.406 24.7045 118.186 25.0445 118.726 25.6445C119.266 26.2545 119.566 27.0345 119.596 27.8445C119.566 29.4745 118.896 31.0245 117.726 32.1545C116.796 33.0845 115.736 33.8745 114.576 34.4945L114.306 34.0645Z" fill="#02033B"/>
<path fill-rule="evenodd" clip-rule="evenodd" d="M77.2959 57.9345V63.4945C77.2959 65.1745 78.0459 65.6945 78.7759 65.6945C79.2459 65.6645 79.6959 65.5645 80.1259 65.3745L80.2359 65.7245C79.4259 66.2345 78.4959 66.5145 77.5359 66.5445C76.7459 66.5445 74.7959 66.2645 74.7959 64.3545V57.9345H73.2559V57.3145H75.0659L76.7759 54.6545H77.2959V57.3145H80.0359V57.9445H77.2959V57.9345Z" fill="#02033B"/>
<path fill-rule="evenodd" clip-rule="evenodd" d="M71.7858 59.9544C71.8358 58.6044 70.7858 57.4744 69.4358 57.4244H69.4158H69.2958C68.3958 57.3144 67.5658 57.9544 67.4558 58.8644C67.4558 58.8644 67.4558 58.8744 67.4558 58.8844C67.4358 59.0244 67.4358 59.1744 67.4558 59.3144C67.5558 60.1744 68.9058 60.4844 69.6358 60.7144C71.7958 61.3944 72.6358 62.2144 72.6358 63.8144C72.6358 65.4144 71.3058 66.5344 68.9358 66.5344C67.7758 66.5944 66.6358 66.2344 65.7058 65.5344L65.4258 63.2244H65.6458C65.9958 65.2844 66.8858 66.0944 69.0258 66.1544C69.8458 66.3044 70.6258 65.7644 70.7858 64.9444C70.8058 64.7744 70.8058 64.6144 70.7858 64.4444C70.7858 63.4444 69.7858 63.0744 68.5158 62.6644C66.7558 62.1044 65.6758 61.4244 65.6758 59.7544C65.6758 58.0844 67.1658 56.9844 69.3558 56.9844C70.2658 57.0144 71.1558 57.2644 71.9558 57.7044V59.9044L71.7858 59.9544Z" fill="#02033B"/>
<path fill-rule="evenodd" clip-rule="evenodd" d="M110.575 32.7244C109.235 32.7244 107.575 33.4644 105.855 35.6344V32.7244L100.055 33.5744V34.0544C100.055 34.0544 101.335 33.9044 101.855 33.8644V47.6644C101.855 48.2344 101.765 48.9644 100.795 48.9644H99.8555V49.6044H108.125V48.9744H107.125C106.495 49.0544 105.925 48.6044 105.845 47.9744C105.825 47.8644 105.825 47.7644 105.845 47.6544V38.0144C106.065 35.8944 107.395 34.6744 108.005 34.6644C109.175 34.6644 109.135 35.4944 110.175 35.9844C111.045 36.4144 112.095 36.0644 112.525 35.1944C112.625 34.9844 112.685 34.7544 112.695 34.5144C112.695 33.5144 112.015 32.7544 110.565 32.7544" fill="#02033B"/>
<path fill-rule="evenodd" clip-rule="evenodd" d="M32.825 33.3444C37.385 33.3444 37.195 39.3444 37.195 39.4044C37.235 39.7844 36.955 40.1344 36.575 40.1744C36.575 40.1744 36.565 40.1744 36.555 40.1744C36.495 40.1744 36.445 40.1744 36.385 40.1744H29.585C29.175 40.1944 28.815 39.8744 28.785 39.4644V39.3144C28.865 37.3144 29.395 33.3144 32.785 33.3144M29.515 40.9444H40.685C40.795 39.9444 40.745 38.9344 40.535 37.9444C40.335 36.8944 39.885 35.8944 39.225 35.0544C38.125 33.7244 36.205 32.7244 32.975 32.7244C27.125 32.7244 24.125 36.4544 24.125 41.5344C24.125 46.6144 26.815 50.1444 33.055 50.1444C37.195 50.1444 39.365 48.2044 40.475 45.4644L40.025 45.2444C38.565 48.1444 36.765 49.2444 33.895 49.2444C29.675 49.2444 28.795 45.2444 28.755 41.8844C28.755 41.8544 28.755 41.8144 28.755 41.7844C28.725 41.3644 29.035 40.9844 29.465 40.9544H29.575" fill="#02033B"/>
<path fill-rule="evenodd" clip-rule="evenodd" d="M59.8745 57.3144C62.4045 57.3144 62.3145 60.5544 62.3145 60.5644C62.3245 60.7844 62.1645 60.9644 61.9545 60.9944H58.1245C57.8945 61.0044 57.6945 60.8244 57.6745 60.5944V60.5244C57.6745 59.4144 58.0045 57.3344 59.9045 57.3244M58.0945 61.5444H64.2645C64.3045 60.9944 64.2645 60.4444 64.1245 59.9044C64.0145 59.3244 63.7745 58.7744 63.4045 58.3044C62.5245 57.3544 61.2445 56.8544 59.9545 56.9744C57.4445 56.7644 55.2445 58.6344 55.0345 61.1444C55.0345 61.1444 55.0345 61.1444 55.0345 61.1544C55.0145 61.3944 55.0145 61.6444 55.0345 61.8844C55.0345 64.8144 56.5145 66.6544 59.9745 66.6544C61.7945 66.8344 63.5045 65.7544 64.1245 64.0344L63.8045 63.9144C63.2745 65.3144 61.9045 66.2144 60.4045 66.1344C58.0745 66.1344 57.6545 63.9344 57.6345 62.0544C57.6145 61.8144 57.7945 61.6044 58.0345 61.5844" fill="#02033B"/>
<path fill-rule="evenodd" clip-rule="evenodd" d="M90.6851 33.3344C95.2351 33.3344 95.0551 39.3844 95.0551 39.4044C95.0851 39.7944 94.7951 40.1344 94.4051 40.1744C94.3451 40.1744 94.2951 40.1744 94.2351 40.1744H87.4351C87.0151 40.1944 86.6651 39.8744 86.6351 39.4544V39.3544C86.7251 37.3544 87.2551 33.3544 90.6351 33.3544M87.3551 40.9844H98.5351C98.6451 39.9844 98.5851 38.9744 98.3751 37.9844C98.2051 36.9444 97.7751 35.9544 97.1251 35.1144C95.9651 33.7244 94.0651 32.7244 90.8351 32.7244C84.9951 32.7244 81.9551 36.5044 81.9551 41.5844C81.9551 46.6644 84.6351 50.1944 90.8751 50.1944C95.0251 50.1944 97.1951 48.2544 98.3051 45.5144L97.8651 45.2944C96.3951 48.1944 94.5951 49.2944 91.7251 49.2944C87.5051 49.2944 86.6251 45.2944 86.5851 41.9344C86.5851 41.9044 86.5851 41.8644 86.5851 41.8344C86.5451 41.4144 86.8551 41.0444 87.2751 41.0044H87.2951H87.4051" fill="#02033B"/>
<path fill-rule="evenodd" clip-rule="evenodd" d="M9.545 36.8445H7.845C7.355 36.9045 6.905 36.5445 6.845 36.0545C6.845 36.0545 6.845 36.0545 6.845 36.0445V26.9345C7.545 26.8245 8.265 26.7845 8.975 26.8045C11.635 26.8045 14.685 27.6545 14.685 32.2245C14.685 35.6245 12.885 36.8445 9.525 36.8445M13.685 37.4245C16.825 36.9345 19.055 35.1745 19.035 31.9045C19.035 28.8045 17.315 26.1545 11.035 26.1545H0.125V26.7245H1.315C1.935 26.6945 2.465 27.1645 2.495 27.7845C2.495 27.8645 2.495 27.9345 2.495 28.0145V47.7245C2.595 48.3845 2.145 48.9945 1.495 49.1045H0.125V49.6445H9.345V49.1045H8.235C7.565 49.1845 6.955 48.7145 6.865 48.0445C6.845 47.9345 6.845 47.8145 6.865 47.7045V38.7045C6.865 38.7045 6.865 38.6745 6.865 38.6545C6.865 38.0745 7.095 37.6545 7.865 37.6545H9.125C11.125 37.6545 14.585 38.9545 15.605 44.4645C16.975 51.9145 23.405 53.5245 29.725 53.2545V52.9145C17.035 52.0245 23.555 38.3145 13.725 37.4145" fill="#02033B"/>
<path fill-rule="evenodd" clip-rule="evenodd" d="M42.1855 56.1444C42.8355 56.2244 43.4355 55.7644 43.5155 55.1144C43.5155 55.1144 43.5155 55.1044 43.5155 55.0944V54.9844C43.5455 54.3144 43.0255 53.7544 42.3555 53.7244C42.3455 53.7244 42.3355 53.7244 42.3255 53.7244H42.1855C41.5155 53.6744 40.9155 54.1744 40.8555 54.8444V54.9444C40.8555 55.6044 41.3855 56.1544 42.0455 56.1544C42.0755 56.1544 42.0955 56.1544 42.1255 56.1544H42.2355" fill="#02033B"/>
<path fill-rule="evenodd" clip-rule="evenodd" d="M43.8556 65.9345C43.5956 65.9245 43.3856 65.7045 43.3956 65.4345C43.3956 65.4345 43.3956 65.4345 43.3956 65.4245V57.3645L39.8656 57.9645L40.2156 58.3545L40.8256 58.2945V65.4045C40.8556 65.6645 40.6656 65.9045 40.4056 65.9345H39.7656V66.3645H44.6856V65.9345H43.8656H43.8556Z" fill="#02033B"/>
<path fill-rule="evenodd" clip-rule="evenodd" d="M53.8152 45.5946C53.8152 47.8746 51.4052 48.7346 50.2152 48.5946C48.1252 48.3746 47.2952 46.7246 47.2952 44.8246C47.1352 43.3546 48.0852 41.9946 49.5252 41.6546C50.9552 41.1046 52.9852 40.4746 53.8052 40.0146V45.5946H53.8152ZM60.1352 48.3946C59.7852 48.7246 59.3352 48.9346 58.8552 48.9746C58.3852 49.0146 57.9652 48.6846 57.9052 48.2146C57.8552 47.3346 57.8352 37.4846 57.8352 37.4846C57.8352 35.4846 56.5652 32.7146 50.9352 32.7146C46.6652 32.7146 43.7852 34.7146 43.6552 36.6446C43.5152 37.5246 44.1252 38.3546 45.0052 38.4946C45.1152 38.5046 45.2152 38.5046 45.3252 38.4946H45.5652C45.6452 38.4846 45.7152 38.4646 45.7952 38.4346L45.9552 38.3846C46.5852 38.0446 47.0152 37.4346 47.1352 36.7246C47.5152 34.4046 48.3552 33.1946 50.8252 33.2746C53.7152 33.3546 53.8252 34.9146 53.8252 37.5546V37.9146C53.8252 38.2246 53.6352 39.3546 51.6952 40.1446C49.9552 40.5346 48.2052 40.8446 46.4352 41.0546C44.3652 41.3746 42.8652 43.2146 42.9852 45.3046C42.9852 47.8446 44.9052 49.9546 48.3852 50.0546C51.1452 50.1346 52.7152 48.6346 53.8252 47.9046C54.1452 49.0346 55.0952 49.8846 56.2552 50.0646C57.7552 50.2746 59.2752 49.8146 60.4052 48.8146L60.1352 48.3946Z" fill="#02033B"/>
<path fill-rule="evenodd" clip-rule="evenodd" d="M74.5354 44.6445C74.5854 45.2545 74.4954 45.8645 74.2654 46.4245C73.5554 48.0745 72.0354 48.5445 70.2654 48.5445C66.9454 48.5445 66.0254 44.9845 66.0254 41.0945C66.0254 36.7745 67.0254 33.7745 70.5754 33.7745C72.1354 33.7045 73.5954 34.5745 74.2654 35.9945C74.5254 36.6845 74.6254 37.4145 74.5654 38.1445L74.5354 44.6445ZM79.9554 48.8945C78.8754 48.8945 78.5354 48.3645 78.5354 47.4645V24.8645L71.8754 25.5845V26.1945L74.5354 26.0345V35.0345C73.6554 33.6545 72.1654 32.7745 70.5354 32.6845C68.0454 32.5145 65.5854 33.3645 63.7354 35.0445C61.9554 36.7645 61.0054 39.1745 61.1254 41.6445C61.1254 46.5345 63.7054 49.9545 68.7054 49.9545C70.8554 49.9545 72.9354 49.1645 74.5354 47.7245V49.5245H80.5354V48.8945H79.9554Z" fill="#02033B"/>
<path fill-rule="evenodd" clip-rule="evenodd" d="M35.1256 63.6045C35.2656 64.7045 34.4956 65.7045 33.4056 65.8445C33.1656 65.8745 32.9256 65.8645 32.6956 65.8145C30.8156 65.8145 30.2956 63.8145 30.2956 61.5945C30.2956 59.1545 30.8556 57.4545 32.8656 57.4545C33.7656 57.3945 34.6156 57.9045 34.9956 58.7245C35.1256 59.1045 35.1756 59.5245 35.1256 59.9245V63.6045ZM38.1956 66.0145C37.5856 66.0145 37.3856 65.7145 37.3856 65.2045V52.4045L33.6156 52.8045V53.1545L35.1256 53.0645V58.1345C34.6256 57.3545 33.7856 56.8545 32.8656 56.8045C31.4556 56.7145 30.0656 57.1945 29.0156 58.1445C27.9956 59.1245 27.4556 60.4945 27.5256 61.9045C27.5256 64.6745 28.9956 66.6045 31.8256 66.6045C33.0456 66.6045 34.2256 66.1445 35.1256 65.3145V66.3145H38.5056V65.9545H38.1956V66.0145Z" fill="#02033B"/>
<path fill-rule="evenodd" clip-rule="evenodd" d="M49.7245 62.7245C48.6145 62.7245 47.9845 61.8245 47.9145 60.2245C47.8445 58.6245 48.7545 57.7745 49.6445 57.7745C50.4545 57.7745 51.3745 58.3245 51.3445 60.2245C51.3445 61.7645 50.8545 62.7145 49.7045 62.7245M49.8245 66.4045C51.6845 66.4045 52.7045 66.8245 52.6445 68.1945C52.6545 69.4645 51.6345 70.5045 50.3645 70.5245C50.2645 70.5245 50.1745 70.5245 50.0745 70.5245C48.3945 70.5245 47.3645 69.6345 47.3245 68.1245C47.3045 67.6345 47.5245 67.1545 47.9245 66.8645C48.4845 66.4845 49.1745 66.3345 49.8445 66.4245M52.8445 56.9645C53.4845 56.9645 53.4645 57.4245 54.0345 57.6945C54.5145 57.9145 55.0845 57.7245 55.3345 57.2645C55.3945 57.1445 55.4245 57.0145 55.4345 56.8745C55.4345 56.3145 55.0545 55.8745 54.2545 55.8745C53.2045 55.9745 52.2545 56.5545 51.6845 57.4445C51.0845 57.2245 50.4545 57.1145 49.8145 57.1045C46.8745 57.1045 45.6645 58.2745 45.6845 60.2045C45.6745 61.5945 46.6645 62.7845 48.0245 63.0345C46.9245 63.1845 46.0245 63.8245 46.0245 64.5845C46.0245 65.6745 47.4645 66.1745 48.2945 66.2345C47.4945 66.3145 45.7345 66.3545 45.6145 68.2345C45.4945 70.1145 47.4845 71.1445 49.7045 71.1645C53.3445 71.1645 54.7645 69.5645 54.7645 67.4645C54.7645 65.3645 53.0145 64.7145 51.0345 64.7145H49.2645C47.9545 64.7145 47.5545 64.2745 47.5545 63.9545C47.5545 63.4245 48.1445 63.2045 48.3945 63.1245C48.6445 63.0445 49.3945 63.1845 49.6145 63.1845C51.4045 63.1845 53.6145 62.4545 53.6145 60.1845C53.6045 59.7545 53.5045 59.3245 53.3245 58.9345L53.2345 58.7645C53.1645 58.6545 53.0845 58.5545 53.0045 58.4545L52.8945 58.3345L52.5445 57.9945C52.3745 57.8745 52.2045 57.7545 52.0245 57.6445C52.1845 57.3045 52.4845 57.0545 52.8445 56.9545" fill="#02033B"/>
</g>
</g>
<defs>
<clipPath id="clip0_30_8329">
<rect width="130" height="95" fill="white" transform="translate(0.125 0.484375)"/>
</clipPath>
<clipPath id="clip1_30_8329">
<rect width="130" height="46.52" fill="white" transform="translate(0.125 24.7244)"/>
</clipPath>
</defs>
</svg>
