<svg width="131" height="96" viewBox="0 0 131 96" fill="none" xmlns="http://www.w3.org/2000/svg">
<g clip-path="url(#clip0_30_8323)">
<g clip-path="url(#clip1_30_8323)">
<path d="M0.125 69.2444H42.645V26.7244H0.125V69.2444ZM20.145 36.9644C19.475 34.8244 18.745 34.1344 14.975 34.1344H12.065C11.185 34.1344 10.995 34.3244 10.995 35.1144V41.1844H12.415C15.415 41.1844 16.055 40.6344 16.415 38.6244H17.145V45.4044H16.415C16.015 43.1444 14.885 42.5744 12.415 42.5744H10.985V48.9044C10.985 50.9144 11.525 51.1444 13.815 51.2344V51.9644H4.735V51.2144C6.625 51.1344 7.165 50.9044 7.165 48.8844V35.7944C7.165 33.7844 6.625 33.5544 4.795 33.4744V32.7444H20.845L20.945 36.9744H20.145V36.9644ZM38.385 36.9644C37.775 34.8944 36.875 34.1344 34.845 34.1344H32.475V48.8844C32.475 50.8944 32.995 51.1244 35.175 51.2144V51.9644H25.915V51.2344C28.075 51.1544 28.615 50.9244 28.615 48.9044V34.1544H26.255C24.245 34.1544 23.325 34.9044 22.715 36.9844H21.755L22.155 32.7544H38.995L39.355 36.9844H38.385V36.9644Z" fill="#02033B"/>
<path d="M52.0041 44.4143C52.0041 45.4143 52.2841 45.4943 53.3941 45.5343V45.8943H48.9741V45.5343C49.8941 45.4943 50.1741 45.3743 50.1741 44.4143V38.0443C50.1741 37.0443 49.8941 36.9643 49.0241 36.9243V36.5643H56.8341L56.8741 38.6343H56.4741C56.1541 37.5943 55.7941 37.2843 53.9641 37.2843H52.5341C52.0941 37.2843 52.0141 37.3643 52.0141 37.7643V40.7143H53.6141C55.0841 40.7143 55.4041 40.4343 55.5641 39.4743H55.9241V42.7843H55.5641C55.3641 41.6643 54.8041 41.3943 53.6141 41.3943H52.0141V44.4243L52.0041 44.4143ZM61.2041 44.4143C61.2041 45.4143 61.4841 45.4943 62.5941 45.5343V45.8943H57.9841V45.5343C59.1041 45.4943 59.3741 45.3743 59.3741 44.4143V38.0443C59.3741 37.0443 59.1341 36.9643 57.9841 36.9243V36.5643H62.6041V36.9243C61.4841 36.9643 61.2141 37.0843 61.2141 38.0443V44.4143H61.2041ZM72.2341 38.2843C72.2341 37.3643 71.9941 37.0043 70.9641 36.8943V36.5343H74.2741V36.8943C73.2341 37.0143 73.0041 37.3743 73.0041 38.2843V46.0943H72.5241L66.1541 38.7243V44.1443C66.1541 45.0643 66.3941 45.4243 67.4241 45.5343V45.8943H64.1141V45.5343C65.1541 45.4143 65.3841 45.0543 65.3841 44.1443V37.8543C65.1441 37.3443 64.6641 36.9943 64.1141 36.8943V36.5343H66.6641L72.2441 42.9843V38.2843H72.2341ZM77.2141 42.5443L78.6041 38.8443L79.9941 42.5443H77.2141ZM83.9041 45.8943V45.5343C83.1841 45.5343 83.0241 45.2543 82.6641 44.3843L79.3541 36.3343H78.9141L75.4941 44.6643C75.3241 45.1643 74.8641 45.5143 74.3441 45.5443V45.9043H77.3341V45.5443C76.6941 45.5443 76.3741 45.3843 76.3741 44.9443C76.4941 44.3543 76.6641 43.7843 76.8941 43.2343H80.2841C80.5341 43.7843 80.7141 44.3543 80.8441 44.9443C80.8441 45.3843 80.4841 45.5443 79.8441 45.5443V45.9043H83.9041V45.8943ZM92.9841 38.2643C92.9841 37.3443 92.7441 36.9843 91.7141 36.8743V36.5143H95.0241V36.8743C93.9841 36.9943 93.7541 37.3543 93.7541 38.2643V46.0743H93.2741L86.9141 38.7043V44.1243C86.9141 45.0443 87.1541 45.4043 88.1841 45.5143V45.8743H84.8741V45.5143C85.9141 45.3943 86.1441 45.0343 86.1441 44.1243V37.8343C85.9041 37.3243 85.4241 36.9743 84.8741 36.8743V36.5143H87.4241L93.0041 42.9643V38.2643H92.9841ZM104.804 43.6843C104.014 45.2443 102.374 46.2043 100.624 46.1143C97.5941 46.1143 95.7641 44.1243 95.7641 41.1343C95.7941 38.4443 97.9941 36.2843 100.684 36.3143H100.704C101.584 36.4143 102.454 36.6043 103.294 36.8743C103.574 36.8743 103.654 36.7143 103.894 36.3143H104.374L104.574 39.4243H104.174C103.804 37.9843 102.514 36.9543 101.024 36.9143C98.8341 36.9143 97.8741 39.3043 97.8741 41.0943C97.8741 43.6043 98.9441 45.3143 101.304 45.3143C102.644 45.2643 103.864 44.5243 104.534 43.3643L104.814 43.6843H104.804ZM109.304 44.4043C109.304 45.4043 109.584 45.4843 110.694 45.5243V45.8843H106.084V45.5243C107.204 45.4843 107.474 45.3643 107.474 44.4043V38.0343C107.474 37.0343 107.194 36.9543 106.084 36.9143V36.5543H110.704V36.9143C109.584 36.9543 109.314 37.0743 109.314 38.0343V44.4043H109.304ZM114.514 42.5343L115.904 38.8343L117.294 42.5343H114.514ZM121.204 45.8843V45.5243C120.484 45.5243 120.324 45.2443 119.964 44.3743L116.654 36.3243H116.214L112.794 44.6543C112.624 45.1543 112.164 45.5043 111.644 45.5343V45.8943H114.634V45.5343C113.994 45.5343 113.674 45.3743 113.674 44.9343C113.794 44.3443 113.964 43.7743 114.194 43.2243H117.584C117.824 43.7743 118.014 44.3443 118.144 44.9343C118.144 45.3743 117.784 45.5343 117.144 45.5343V45.8943H121.204V45.8843ZM122.044 45.8843V45.5243C122.924 45.4843 123.194 45.3643 123.194 44.4043V38.0343C123.194 37.0343 122.914 36.9543 122.044 36.9143V36.5543H126.344V36.9143C125.304 36.9543 125.074 37.0743 125.074 38.0343V44.6043C125.074 45.1643 125.234 45.3643 126.274 45.3643C127.944 45.3643 128.944 45.0443 129.734 43.4143H130.094L129.454 45.9243H122.044V45.8843ZM50.9841 60.6243C52.0541 60.5843 52.2941 60.4643 52.2941 59.5043V52.3343H51.1441C50.0741 52.3343 49.6341 52.7743 49.3141 54.0443H48.9141L49.1541 51.6543H57.3641L57.6041 54.0443H57.2041C56.8841 52.7643 56.4841 52.3343 55.3741 52.3343H54.2241V59.5043C54.2241 60.5043 54.5041 60.5843 55.5441 60.6243V60.9843H51.0441V60.6243H50.9841ZM61.7841 59.5043C61.7841 60.5043 62.0641 60.5843 63.1741 60.6243V60.9843H58.5541V60.6243C59.6741 60.5843 59.9441 60.4643 59.9441 59.5043V53.1343C59.9441 52.1343 59.6641 52.0543 58.5541 52.0143V51.6543H63.1841V52.0143C62.0641 52.0543 61.7941 52.1743 61.7941 53.1343V59.5043H61.7841ZM72.9741 51.6143H76.2041V51.9743C75.3241 52.0143 75.0541 52.1343 75.0541 53.0943V59.4643C75.0541 60.4643 75.3341 60.5443 76.2041 60.5843V60.9443H71.9741V60.5843C72.8941 60.5443 73.1741 60.4243 73.1741 59.4643V52.8943H73.1341L70.0241 61.0643H69.5841L66.5141 52.8943H66.4741V59.1843C66.4741 60.1043 66.7141 60.4643 67.7441 60.5743V60.9343H64.4341V60.5743C65.4741 60.4543 65.7041 60.0943 65.7041 59.1843V52.8143C65.7041 52.1743 65.4241 51.9343 64.4341 51.9343V51.5743H67.8241L70.2941 58.0643L72.9641 51.6143H72.9741ZM77.5141 60.9743V60.6143C78.3941 60.5743 78.6641 60.4543 78.6641 59.4943V53.1243C78.6641 52.1243 78.3841 52.0443 77.5141 52.0043V51.6443H85.3241L85.3641 53.7143H84.9641C84.6441 52.6743 84.2841 52.3643 82.4541 52.3643H81.0241C80.5841 52.3643 80.5041 52.4443 80.5041 52.8443V55.7943H82.0941C83.5641 55.7943 83.8841 55.5143 84.0441 54.5543H84.4041V57.8643H84.0441C83.8441 56.7443 83.2841 56.5143 82.0941 56.5143H80.5041V59.7443C80.5041 60.3043 80.6641 60.5043 82.3341 60.5043C84.0041 60.5043 85.0041 60.1843 85.7941 58.5543H86.1541L85.5141 61.0643H77.5041V60.9843H77.5141V60.9743ZM87.3941 58.0043H87.7541C88.1341 59.3643 89.2941 60.3743 90.7041 60.5543C91.5141 60.6243 92.2241 60.0343 92.2941 59.2243V59.0043C92.2941 56.8543 87.4341 56.4543 87.4341 53.7843C87.5441 52.4043 88.7141 51.3543 90.1041 51.3943C90.9541 51.4743 91.7941 51.6343 92.6141 51.8743C92.8741 51.8743 93.0841 51.6543 93.0941 51.3943H93.4541V54.3843H93.0941C92.8541 53.0943 91.7741 52.1343 90.4641 52.0343C89.7541 51.9543 89.1241 52.4543 89.0341 53.1643V53.3543C89.0341 55.2643 93.8941 55.3043 93.8941 58.6143C93.8541 60.0843 92.6241 61.2543 91.1541 61.2143H90.9841C89.3541 61.2143 88.9141 60.6543 88.2741 60.6543C88.0341 60.6543 87.8741 60.8143 87.7941 61.1343H87.3141L87.3941 58.0243V58.0043Z" fill="#02033B"/>
</g>
</g>
<defs>
<clipPath id="clip0_30_8323">
<rect width="130" height="95" fill="white" transform="translate(0.125 0.484375)"/>
</clipPath>
<clipPath id="clip1_30_8323">
<rect width="130" height="42.52" fill="white" transform="translate(0.125 26.7244)"/>
</clipPath>
</defs>
</svg>
