<svg width="131" height="96" viewBox="0 0 131 96" fill="none" xmlns="http://www.w3.org/2000/svg">
<g clip-path="url(#clip0_30_8313)">
<path fill-rule="evenodd" clip-rule="evenodd" d="M119.895 39.1744C120.215 39.0144 120.515 38.8244 120.795 38.6144H130.125C129.905 39.7244 129.625 40.8344 129.295 41.9244C128.295 42.9244 127.165 43.8544 126.065 44.7844C125.215 48.0344 124.285 51.2144 123.465 54.4944C122.085 55.4944 120.805 56.4944 119.465 57.4944C118.065 57.4144 116.745 57.4944 115.245 57.4944C115.325 56.7544 115.645 55.9444 115.735 55.0844C115.305 55.2844 114.885 55.5244 114.495 55.8044C114.105 56.0544 113.715 56.2844 113.295 56.5144C111.695 57.4544 109.835 57.8344 107.995 57.5744C106.715 57.3844 105.565 56.6944 104.795 55.6544C103.025 57.0244 99.5445 58.2844 96.6645 57.3844C94.8245 56.8044 93.8345 55.1044 94.2545 52.6844C93.5645 52.7944 92.8745 52.8544 92.1845 52.8744C91.9545 53.4244 91.7545 53.9944 91.5845 54.5644C90.5845 55.2744 89.5845 56.1044 88.5845 56.9044C88.2845 57.1944 87.9445 57.4444 87.5845 57.6544C86.8445 57.7244 86.1045 57.7244 85.3645 57.6544C84.6245 57.7144 83.8845 57.7144 83.1445 57.6544C84.3445 53.1744 85.5645 48.1744 86.8945 43.5144C87.0045 42.8544 87.1845 42.2144 87.4245 41.5944C87.6745 41.2944 87.9645 41.0244 88.2845 40.8044C89.2045 40.0444 90.1745 39.4044 91.0345 38.6144H95.0345C96.3745 38.6144 97.7745 38.4844 98.9445 38.6144C99.3745 38.7044 99.7745 38.8644 100.145 39.1044C100.395 39.4644 100.655 39.8344 100.895 40.1944C101.785 39.6244 102.715 39.1244 103.685 38.6944C104.855 38.3444 106.065 38.1944 107.285 38.2744C108.845 38.3344 110.285 38.9444 110.825 40.1944C112.065 39.0844 113.615 38.3844 115.265 38.1944C116.865 37.9944 118.495 38.3244 119.895 39.1344M119.365 39.5544C118.395 38.9644 117.265 38.6844 116.125 38.7344C115.475 38.7744 114.825 38.9044 114.205 39.1144C113.005 39.3544 111.945 40.0244 111.205 40.9944C110.615 41.9744 110.405 43.1344 110.605 44.2644C110.975 45.1044 111.485 45.8644 112.125 46.5244C112.695 47.2844 113.385 47.9444 113.855 48.5944C114.045 48.8344 114.195 49.0944 114.305 49.3844C114.615 50.1144 114.275 50.9544 113.555 51.2644C113.365 51.3444 113.165 51.3844 112.965 51.3744C112.855 51.3744 112.825 51.2744 112.775 51.2644C112.725 51.2544 112.635 51.2644 112.545 51.2644C111.645 50.8444 112.015 49.9544 112.175 49.0044H108.785C108.455 49.8544 108.265 50.7644 108.225 51.6744C108.325 53.5144 110.095 54.3044 111.945 54.3144C113.285 54.3744 114.605 54.0244 115.745 53.3144C116.305 53.0144 116.815 52.6144 117.245 52.1444C118.025 51.1144 118.405 49.8244 118.305 48.5344C118.065 47.3444 117.415 46.2844 116.465 45.5344C115.775 44.9544 115.145 44.2944 114.585 43.5844C114.305 43.1144 114.225 42.5644 114.365 42.0344C114.645 41.6144 115.145 41.3944 115.645 41.4744C116.805 41.6644 116.435 43.2344 116.245 44.0344C117.245 44.1144 118.475 44.0344 119.405 44.0344C119.895 42.7344 120.515 40.5244 119.405 39.5144M102.545 39.8144C102.195 40.0344 101.885 40.2944 101.615 40.6044C101.385 40.8044 101.185 41.0344 101.015 41.2844C100.865 41.6844 100.755 42.1044 100.675 42.5244C99.9545 45.0244 99.2545 47.5244 98.6045 49.9344C98.4645 50.3544 98.3545 50.7844 98.2645 51.2144C98.0445 52.5744 98.9245 53.8644 100.265 54.1544C102.655 54.7344 105.425 54.1044 106.705 52.7144C107.085 52.3044 107.405 51.8344 107.635 51.3244C107.905 50.6744 108.065 49.7944 108.315 48.9544C108.795 47.3844 109.315 45.7444 109.675 44.1744C109.925 43.3644 110.125 42.5344 110.275 41.6944C110.385 41.0644 110.275 40.4144 109.975 39.8544C109.475 39.3844 108.865 39.0644 108.205 38.9144C107.345 38.7444 106.475 38.7044 105.605 38.7944C104.515 38.9144 103.465 39.2544 102.515 39.7944M121.255 39.1944C121.005 39.9644 120.815 40.7644 120.685 41.5644H122.835C121.835 45.6344 120.665 49.5044 119.675 53.5644C120.745 53.6244 121.805 53.6244 122.875 53.5644C124.025 49.5644 125.025 45.6544 126.145 41.6344C126.945 41.6944 127.755 41.6944 128.555 41.6344C128.755 40.8244 129.055 39.9044 129.195 39.1544C126.195 39.1544 123.785 39.1044 121.255 39.1544M97.9845 48.1544C98.4545 47.5944 98.7945 46.9444 98.9845 46.2344C99.4245 45.1344 99.7545 44.0044 99.9845 42.8444C100.145 42.3044 100.255 41.7444 100.295 41.1744C100.385 40.3144 99.8445 39.5144 99.0145 39.2644C98.4045 39.2244 97.7845 39.2244 97.1745 39.2644H91.6045C90.3045 44.0844 88.9645 48.8544 87.7645 53.6744C88.8545 53.7344 89.9445 53.7344 91.0345 53.6744C91.4645 52.2044 91.8545 50.6744 92.3145 49.2744C94.6645 49.4244 96.6645 49.4444 97.9945 48.2244" fill="#02033B"/>
<path fill-rule="evenodd" clip-rule="evenodd" d="M53.5551 38.7343H53.7051V38.9543H53.5551C53.5051 38.8743 53.5051 38.7743 53.5551 38.6943" fill="#02033B"/>
<path fill-rule="evenodd" clip-rule="evenodd" d="M102.015 51.2643C102.015 51.1343 101.955 51.0143 101.865 50.9243C101.955 49.9843 102.155 49.0643 102.465 48.1743C102.865 46.7443 103.245 45.3743 103.665 43.8143C103.775 43.0943 104.065 42.4043 104.495 41.8143C105.085 41.3643 106.495 41.3143 106.605 42.2343C106.575 42.5943 106.505 42.9443 106.375 43.2843C105.975 44.9943 105.535 46.6743 105.065 48.3643C104.875 49.0443 104.765 49.7443 104.535 50.3643C104.445 50.6043 104.335 50.8343 104.195 51.0443C103.585 51.5843 102.705 51.6543 102.015 51.2343" fill="#02033B"/>
<path fill-rule="evenodd" clip-rule="evenodd" d="M57.6951 51.0345C57.1451 51.4645 56.4051 51.5545 55.7751 51.2545C55.2951 50.6645 55.8951 49.3445 56.1151 48.5845C56.6551 46.7145 57.1151 45.0045 57.5851 43.1645C57.6551 42.8045 57.7551 42.4545 57.8851 42.1145C58.2051 41.5345 59.9551 41.2045 60.1051 42.1145C60.0851 42.5245 60.0151 42.9245 59.8851 43.3145C59.6551 44.4045 59.2351 45.6245 58.9751 46.6645C58.6551 48.1445 58.2351 49.6145 57.7051 51.0345" fill="#02033B"/>
<path fill-rule="evenodd" clip-rule="evenodd" d="M93.0645 46.5945C93.4845 44.9945 93.9245 43.4045 94.3745 41.8145C95.1245 41.6245 96.4345 41.5645 96.5645 42.3045C96.5745 42.5745 96.5545 42.8345 96.4845 43.0945C96.2645 44.2145 95.9044 45.3045 95.3944 46.3345C94.7144 46.8045 93.8345 46.9045 93.0645 46.5945Z" fill="#02033B"/>
<path fill-rule="evenodd" clip-rule="evenodd" d="M67.625 45.2744C67.925 44.0844 68.285 42.9244 68.715 41.7744C69.635 41.9144 71.005 41.3444 70.785 42.8344C70.685 43.5044 70.255 44.3444 70.105 44.9344C69.705 45.4544 68.345 45.3244 67.625 45.2744Z" fill="#02033B"/>
<path fill-rule="evenodd" clip-rule="evenodd" d="M87.385 38.6143H82.385C82.085 38.8843 81.745 39.1543 81.385 39.4043C81.095 39.6843 80.755 39.9143 80.385 40.0843C80.495 39.5943 80.585 39.1043 80.645 38.6143H75.715C75.445 38.8943 75.145 39.1343 74.815 39.3343C74.485 39.0643 74.115 38.8543 73.725 38.6943C73.065 38.6143 72.385 38.6143 71.725 38.6943H65.105C64.765 38.9943 64.415 39.2643 64.045 39.5243C62.515 37.9643 58.775 37.9243 56.565 38.7743C56.395 38.7743 56.565 38.5443 56.305 38.6243H51.445C50.685 39.1743 50.125 39.8043 49.265 40.2743C49.195 39.8743 49.265 39.0843 49.155 38.6143H44.155C43.855 38.8943 43.525 39.1243 43.155 39.2943C43.155 39.0043 43.305 38.8743 43.335 38.6143H38.915C38.365 39.0743 37.765 39.4743 37.125 39.8143C37.105 39.4143 37.075 39.0143 37.015 38.6143H34.815C34.095 38.5343 33.355 38.5343 32.635 38.6143C32.125 38.7643 31.795 39.4943 31.245 39.5543C31.185 39.2343 31.145 38.9043 31.125 38.5743C26.785 38.5943 20.575 38.4043 15.925 38.6143C15.475 38.5643 15.025 38.5343 14.575 38.5443C14.095 38.6443 13.515 39.5443 13.025 39.5443C12.945 39.2143 12.905 38.8443 12.805 38.5443H8.125C7.065 39.2843 6.125 40.1743 5.125 40.9443C4.745 41.2643 4.325 41.4243 4.125 41.7743C3.995 42.2343 3.905 42.7043 3.845 43.1743C3.545 44.2543 3.315 45.1743 3.055 46.1743C2.125 49.9743 0.925 53.9743 0.125 57.6243H4.305C4.995 57.0443 5.715 56.5143 6.485 56.0343C6.625 56.5243 6.605 57.0343 6.745 57.6243H9.745C10.075 57.6543 10.415 57.6543 10.745 57.6243C11.075 57.5443 11.205 57.1243 11.495 57.0543C11.705 57.1743 11.775 57.4343 11.915 57.6243C14.105 57.4743 16.655 57.6743 18.345 57.6243C18.915 57.6743 19.475 57.6743 20.045 57.6243C20.355 57.4643 20.645 57.2543 20.905 57.0243C21.165 56.7743 21.465 56.5843 21.805 56.4543C21.805 56.9043 21.665 57.3043 21.695 57.6243H25.045C25.235 57.6243 25.415 57.6243 25.605 57.6243C26.085 57.5643 26.605 57.0143 26.995 56.7543C27.345 56.4143 27.775 56.1543 28.245 56.0043C28.155 56.5543 27.985 57.0043 27.905 57.5843H29.855C30.565 57.6643 31.295 57.6643 32.005 57.5843C32.325 57.5143 32.735 57.0543 33.055 56.7843C34.125 55.9743 35.325 55.1743 36.235 54.4143C37.605 51.4143 39.095 48.3343 40.495 45.4143C40.695 44.9943 40.775 44.4743 41.165 44.1743C41.415 45.8843 41.635 47.5943 41.805 49.1743C41.925 49.7243 41.985 50.2743 41.995 50.8343C41.885 51.3943 41.735 51.9443 41.545 52.4843L40.185 57.5343H44.775C45.825 56.8143 46.715 55.9543 47.775 55.2743C48.455 56.7043 49.875 57.6343 51.465 57.6843C53.005 57.7943 54.545 57.4643 55.905 56.7443C56.465 56.3943 57.065 56.0943 57.675 55.8443C57.625 56.4443 57.475 56.9443 57.415 57.5343H61.705C62.215 57.1443 62.755 56.7943 63.315 56.4843C63.315 56.9243 63.145 57.1043 63.135 57.4843C65.215 57.5443 67.625 57.4843 69.905 57.4843C70.695 57.5643 71.485 57.5643 72.275 57.4843C72.645 57.3143 72.975 57.0843 73.275 56.8043C73.635 56.5543 73.885 56.2043 74.275 56.1343C74.485 56.5643 74.655 57.0143 74.765 57.4843H79.765C81.105 56.4343 82.375 55.3043 83.765 54.2843C83.095 51.4343 82.455 48.5643 81.845 45.6643C83.645 43.5943 85.425 41.2243 87.125 39.0643C87.205 38.9643 87.435 38.7843 87.345 38.6143M10.955 53.7043C10.555 50.9743 10.375 48.2543 9.955 45.5743C9.125 48.1743 8.465 51.0943 7.575 53.7043C6.675 53.7043 5.665 53.7543 4.825 53.7043C5.975 48.8043 7.285 44.1143 8.475 39.2943C8.495 39.2343 8.535 39.1943 8.595 39.1743H12.315C12.615 41.4843 12.835 43.8743 13.185 46.1743C13.955 43.9043 14.515 41.4343 15.295 39.1743C16.235 39.1343 17.185 39.1643 18.125 39.2543C16.805 44.1743 15.545 48.8843 14.125 53.7043H10.955ZM35.645 53.7043C34.605 53.7643 33.565 53.7643 32.525 53.7043C32.705 50.9343 33.015 48.3443 33.235 45.5443C32.835 46.1743 32.495 46.8443 32.235 47.5443C31.235 49.5443 30.365 51.6943 29.415 53.7543H26.215C26.295 49.7543 26.685 45.6543 26.855 41.7543H22.565C22.115 42.7543 21.865 43.9943 21.475 45.0643C22.595 45.1243 24.095 45.0643 25.385 45.0643C25.275 45.8343 24.925 46.6743 24.745 47.5143H20.875C20.455 48.6743 20.185 49.9943 19.825 51.2043C21.225 51.2043 22.735 51.1543 24.075 51.2043C23.815 52.0343 23.525 52.8343 23.245 53.6443H15.795C16.985 48.7443 18.285 43.9543 19.565 39.1543C23.065 39.0943 26.865 39.1043 30.565 39.1543C30.405 41.5143 30.195 43.9343 29.965 46.2243C30.245 46.0443 30.325 45.6843 30.455 45.4043C31.455 43.4043 32.385 41.2143 33.355 39.1543H36.555C36.435 41.6043 36.105 43.9643 35.985 46.3443C37.255 44.1743 38.325 41.6143 39.525 39.2243C40.385 39.2243 41.415 39.1743 42.455 39.2243C40.195 44.0543 37.925 48.8843 35.645 53.7043ZM50.395 46.9343C50.125 47.2743 49.885 47.6443 49.675 48.0243C49.515 48.5243 49.395 49.0243 49.295 49.5343C48.945 50.8643 48.495 52.3043 48.055 53.7843H44.855C45.155 51.8743 45.855 49.9543 46.285 48.0643C46.305 47.5943 46.255 47.1243 46.125 46.6743C45.805 44.1743 45.445 41.7643 45.125 39.2543C46.345 39.1943 47.125 39.2543 48.505 39.2543C48.645 40.9643 48.795 42.7543 48.885 44.4543C50.015 42.9143 51.035 40.9443 52.155 39.2543C53.105 39.2543 54.375 39.2043 55.435 39.2543C53.865 41.8043 52.045 44.2543 50.385 46.8943M61.185 51.2943C60.765 52.1543 60.115 52.8843 59.315 53.4043C57.535 54.4043 55.435 54.6443 53.475 54.0843C53.015 53.9143 52.015 53.3943 51.865 52.7643C51.545 51.4843 52.185 50.0743 52.455 48.8943C52.895 46.9943 53.455 44.8943 54.005 42.9543C54.155 42.2143 54.445 41.5043 54.875 40.8743C55.815 39.5643 57.315 38.7543 58.935 38.6943C61.205 38.4843 63.425 38.6943 63.785 40.5343C63.835 40.8643 63.835 41.2043 63.785 41.5343C63.645 42.3843 63.445 43.2343 63.185 44.0543C62.765 45.6243 62.325 47.3243 61.875 48.9443C61.625 49.8343 61.445 50.7343 61.195 51.3543M71.315 53.7643C70.125 53.7643 69.195 53.8243 67.855 53.7643C68.005 52.5943 68.475 51.0343 68.795 49.6543C68.895 49.2043 69.165 48.6543 69.055 48.3043C68.835 47.6643 67.645 47.9643 66.915 47.8943C66.235 49.7643 65.775 51.8943 65.175 53.8043C64.055 53.7543 62.885 53.8043 61.865 53.8043C62.385 51.3343 63.125 48.9443 63.745 46.5343C64.365 44.1243 64.935 41.6943 65.665 39.3443H71.015C72.015 39.3443 73.535 39.2543 74.135 39.6843C75.245 40.4943 74.545 42.0743 74.205 43.3743C74.065 43.9943 73.885 44.6143 73.675 45.2143C73.345 46.0343 72.445 46.3043 71.675 46.7143C72.245 47.0143 72.895 47.1143 72.835 48.0343C72.755 48.5443 72.625 49.0543 72.465 49.5443C72.105 50.8543 71.545 52.6643 71.255 53.8643M83.655 42.5343C82.835 43.5343 82.025 44.6343 81.215 45.6943C81.775 48.4343 82.375 50.9743 82.905 53.6943C81.385 53.7743 80.285 53.7643 79.105 53.6943C78.685 51.5643 78.285 49.4243 77.865 47.2943C77.115 49.2943 76.575 51.5543 75.945 53.6943H72.365C72.615 52.5043 72.925 51.3343 73.305 50.1743C73.675 48.9943 73.935 47.7843 74.305 46.5943C74.675 45.4043 75.045 44.1943 75.305 42.9843C75.565 41.7743 76.005 40.4743 76.365 39.3343C77.505 39.2443 78.645 39.2443 79.785 39.3343C79.385 40.9743 78.965 42.4743 78.585 44.0343C79.015 43.7043 79.385 43.3143 79.705 42.8743C80.765 41.7243 81.825 40.4443 82.905 39.2943C83.955 39.2343 85.015 39.2343 86.065 39.2943C85.345 40.4443 84.475 41.4743 83.655 42.5343Z" fill="#02033B"/>
</g>
<defs>
<clipPath id="clip0_30_8313">
<rect width="130" height="19.62" fill="white" transform="translate(0.125 38.1743)"/>
</clipPath>
</defs>
</svg>
